<svg xmlns="http://www.w3.org/2000/svg" viewBox="0 0 1200 720" role="img" aria-label="Illustratie van elektriciteitsnet en congestie">
  <defs>
    <linearGradient id="bg" x1="0%" y1="0%" x2="100%" y2="100%">
      <stop offset="0%" stop-color="#163a4c"/>
      <stop offset="60%" stop-color="#235973"/>
      <stop offset="100%" stop-color="#e45d50"/>
    </linearGradient>
    <linearGradient id="ground" x1="0%" y1="0%" x2="0%" y2="100%">
      <stop offset="0%" stop-color="#21495c"/>
      <stop offset="100%" stop-color="#102634"/>
    </linearGradient>
  </defs>

  <rect width="1200" height="720" fill="url(#bg)"/>
  <circle cx="930" cy="120" r="110" fill="#f6d6a7" opacity=".85"/>
  <circle cx="930" cy="120" r="150" fill="#f6d6a7" opacity=".15"/>
  <path d="M0 468C152 424 261 414 393 431c150 20 237 52 369 52 160 0 255-51 438-66v303H0z" fill="url(#ground)"/>
  <path d="M0 534c134-44 249-58 369-43 94 12 183 42 301 42 131 0 256-45 530-58v245H0z" fill="#0b1d27" opacity=".7"/>

  <g stroke="#d4edf6" stroke-width="9" stroke-linecap="round" stroke-linejoin="round" fill="none" opacity=".95">
    <path d="M229 548 286 233l63 315"/>
    <path d="M261 358h56"/>
    <path d="M249 421h81"/>
    <path d="M238 483h102"/>
    <path d="M869 548 926 253l63 295"/>
    <path d="M901 377h56"/>
    <path d="M889 439h81"/>
    <path d="M878 496h102"/>
    <path d="M289 258c119-34 230-43 332-27 88 13 180 35 304 31"/>
    <path d="M283 291c111-26 223-30 332-19 98 10 195 25 316 21"/>
  </g>

  <g fill="#f5c9b6" opacity=".92">
    <circle cx="281" cy="275" r="10"/>
    <circle cx="924" cy="273" r="10"/>
    <circle cx="610" cy="257" r="10"/>
    <circle cx="632" cy="279" r="10"/>
  </g>

  <g transform="translate(147 440)">
    <rect x="0" y="60" width="112" height="92" rx="10" fill="#e9efe8"/>
    <path d="M-10 66 56 14l66 52v10H-10z" fill="#d7695f"/>
    <rect x="42" y="98" width="22" height="54" rx="6" fill="#9bc2d8"/>
    <rect x="14" y="90" width="18" height="18" rx="4" fill="#9bc2d8"/>
    <rect x="78" y="90" width="18" height="18" rx="4" fill="#9bc2d8"/>
  </g>

  <g transform="translate(310 472)">
    <rect x="0" y="0" width="166" height="106" rx="22" fill="#173041" opacity=".94"/>
    <rect x="18" y="18" width="130" height="72" rx="14" fill="#2b5269"/>
    <circle cx="68" cy="54" r="22" fill="none" stroke="#d1ebf2" stroke-width="6"/>
    <path d="M68 24c10 10 15 20 15 30 0 14-6 24-15 30M68 24c-10 10-15 20-15 30 0 14 6 24 15 30" stroke="#d1ebf2" stroke-width="5" stroke-linecap="round" fill="none"/>
    <rect x="120" y="29" width="10" height="50" rx="5" fill="#f2a85a"/>
    <rect x="128" y="41" width="18" height="10" rx="5" fill="#f2a85a"/>
  </g>

  <g transform="translate(785 432)">
    <rect x="0" y="36" width="126" height="128" rx="18" fill="#1a3647"/>
    <rect x="19" y="57" width="88" height="30" rx="9" fill="#2e9b8c"/>
    <rect x="19" y="95" width="88" height="12" rx="6" fill="#8bd9c2"/>
    <rect x="19" y="114" width="54" height="12" rx="6" fill="#8bd9c2"/>
    <path d="M128 71h52M128 101h52" stroke="#cfe8f0" stroke-width="7" stroke-linecap="round"/>
  </g>

  <g fill="#dbe8ee" opacity=".8">
    <rect x="995" y="448" width="28" height="122" rx="8"/>
    <rect x="1039" y="421" width="24" height="149" rx="8"/>
    <rect x="1076" y="459" width="31" height="111" rx="8"/>
  </g>
</svg>
