<svg xmlns="http://www.w3.org/2000/svg" viewBox="0 0 1200 720" role="img" aria-label="Illustratie van subsidie, energie en duurzame infrastructuur">
  <defs>
    <linearGradient id="bg" x1="0%" y1="0%" x2="100%" y2="100%">
      <stop offset="0%" stop-color="#153851"/>
      <stop offset="52%" stop-color="#1f5878"/>
      <stop offset="100%" stop-color="#2ea07d"/>
    </linearGradient>
    <linearGradient id="paper" x1="0%" y1="0%" x2="0%" y2="100%">
      <stop offset="0%" stop-color="#ffffff"/>
      <stop offset="100%" stop-color="#dde8ef"/>
    </linearGradient>
  </defs>

  <rect width="1200" height="720" fill="url(#bg)"/>
  <circle cx="1024" cy="118" r="98" fill="#ffd7a7" opacity=".82"/>
  <circle cx="1024" cy="118" r="140" fill="#ffd7a7" opacity=".16"/>
  <path d="M0 522c145-43 252-46 404-6 129 34 213 65 341 65 170 0 278-56 455-72v211H0z" fill="#102838"/>

  <g transform="translate(120 136)">
    <rect x="38" y="36" width="258" height="340" rx="24" fill="#d9e7ef" opacity=".38"/>
    <rect x="0" y="0" width="258" height="340" rx="24" fill="url(#paper)"/>
    <rect x="40" y="56" width="116" height="18" rx="9" fill="#2f607d"/>
    <rect x="40" y="101" width="176" height="16" rx="8" fill="#93b7c8"/>
    <rect x="40" y="134" width="153" height="16" rx="8" fill="#93b7c8"/>
    <rect x="40" y="167" width="188" height="16" rx="8" fill="#93b7c8"/>
    <rect x="40" y="214" width="172" height="78" rx="16" fill="#edf6f3"/>
    <path d="M62 267 98 233l31 31 55-49" fill="none" stroke="#2ea07d" stroke-width="12" stroke-linecap="round" stroke-linejoin="round"/>
  </g>

  <g transform="translate(452 430)">
    <polygon points="0,68 146,0 292,68 292,144 146,212 0,144" fill="#1a3344"/>
    <polygon points="22,77 146,20 270,77 146,133" fill="#254c66"/>
    <path d="M34 84h224M76 63l61 57M137 35l61 58M197 63l50 46" stroke="#89d2e3" stroke-width="7" stroke-linecap="round"/>
  </g>

  <g transform="translate(846 287)">
    <path d="M78 0c14 63 14 126 0 188" stroke="#e8f1f4" stroke-width="12" stroke-linecap="round"/>
    <path d="M78 28c-8 36-33 66-76 91 43 25 68 55 76 91" fill="none" stroke="#dbe8ee" stroke-width="10" stroke-linecap="round" stroke-linejoin="round"/>
    <path d="M78 28c8 36 33 66 76 91-43 25-68 55-76 91" fill="none" stroke="#dbe8ee" stroke-width="10" stroke-linecap="round" stroke-linejoin="round"/>
    <circle cx="78" cy="284" r="38" fill="#173449"/>
  </g>

  <g transform="translate(706 156)">
    <circle cx="92" cy="92" r="92" fill="#f4c46b" opacity=".92"/>
    <circle cx="92" cy="92" r="62" fill="#ffd992"/>
    <circle cx="92" cy="92" r="16" fill="#ffffff" opacity=".85"/>
    <path d="M92 32v24M92 128v24M32 92h24M128 92h24M49 49l17 17M118 118l17 17M135 49l-17 17M66 118l-17 17" stroke="#fff7e0" stroke-width="8" stroke-linecap="round"/>
  </g>

  <g fill="#dce8ef" opacity=".85">
    <rect x="67" y="545" width="46" height="58" rx="10"/>
    <rect x="125" y="507" width="62" height="96" rx="12"/>
    <rect x="203" y="531" width="42" height="72" rx="10"/>
    <rect x="1031" y="502" width="38" height="101" rx="10"/>
    <rect x="1084" y="471" width="56" height="132" rx="12"/>
  </g>
</svg>
